`<?xml version="1.0" encoding="UTF-8" standalone="no"?>
<!-- Created with Inkscape (http://www.inkscape.org/) -->

<svg
   version="1.1"
   id="svg9265"
   width="1200"
   height="1200"
   viewBox="0 0 1200 1200"
   sodipodi:docname="dog-animal-pet-pdv.svg"
   inkscape:version="1.2 (dc2aedaf03, 2022-05-15)"
   xmlns:inkscape="http://www.inkscape.org/namespaces/inkscape"
   xmlns:sodipodi="http://sodipodi.sourceforge.net/DTD/sodipodi-0.dtd"
   xmlns="http://www.w3.org/2000/svg"
   xmlns:svg="http://www.w3.org/2000/svg">
  <defs
     id="defs9269">
    <clipPath
       clipPathUnits="userSpaceOnUse"
       id="clipPath9281">
      <path
         d="M 0,900 H 900 V 0 H 0 Z"
         id="path9279" />
    </clipPath>
  </defs>
  <sodipodi:namedview
     id="namedview9267"
     pagecolor="#ffffff"
     bordercolor="#000000"
     borderopacity="0.25"
     inkscape:showpageshadow="2"
     inkscape:pageopacity="0.0"
     inkscape:pagecheckerboard="0"
     inkscape:deskcolor="#d1d1d1"
     showgrid="false"
     inkscape:zoom="0.6975"
     inkscape:cx="600"
     inkscape:cy="600.71685"
     inkscape:window-width="1920"
     inkscape:window-height="1017"
     inkscape:window-x="-8"
     inkscape:window-y="-8"
     inkscape:window-maximized="1"
     inkscape:current-layer="g9273">
    <inkscape:page
       x="0"
       y="0"
       id="page9271"
       width="1200"
       height="1200" />
  </sodipodi:namedview>
  <g
     id="g9273"
     inkscape:groupmode="layer"
     inkscape:label="Page 1"
     transform="matrix(1.3333333,0,0,-1.3333333,0,1200)">
    <g
       id="g9275">
      <g
         id="g9277"
         clip-path="url(#clipPath9281)">
        <g
           id="g9283"
           transform="translate(490.2461,439.8008)">
          <path
             d="M 0,0 C 0.043,0.041 0.087,0.098 0.13,0.137 L -4.654,-0.18 Z m -55.683,-80.717 c -1.68,5.629 -19.858,61.725 -39.045,74.567 l -8.254,-0.547 c 3.94,-1.006 7.896,-4.067 11.731,-8.397 l -7.139,-0.144 c -17.085,13.095 -67.626,67.339 -72.323,79.725 -4.698,12.387 -70.331,40.149 -76.738,45.274 -0.37,0.297 -0.795,0.519 -1.255,0.683 0.297,-1.179 0.596,-2.324 0.86,-3.405 -0.014,-1.19 -0.481,-2.283 -1.23,-3.193 18.133,-9.36 66.384,-31.078 70.389,-41.636 3.101,-8.175 26.165,-34.573 46.407,-55.351 10.427,-10.707 20.109,-19.924 25.918,-24.377 l 16.868,0.346 c 10.561,-13.1 20.021,-35.172 25.518,-49.672 2.671,-7.047 4.409,-12.312 4.875,-13.873 14.526,-48.703 3.603,-104.055 -1.339,-109.881 -4.941,-5.828 -21.306,-19.429 -14.247,-26.164 4.642,-4.428 12.791,-5.322 21.116,-2.318 -7.676,-1.361 -14.753,0.064 -17.698,2.318 -7.751,5.93 9.306,20.336 14.248,26.164 4.94,5.826 15.863,61.178 1.338,109.881 m -277.616,195.175 c -0.997,0.599 -4.519,-0.672 -8.288,-2.191 0.109,-0.025 0.235,-0.038 0.315,-0.086 2.135,-1.282 8.97,-1.709 2.135,-6.834 l -6.833,-5.125 c 0,0 8.848,0.842 17.338,1.272 v 1.779 c -5.278,-0.385 -9.365,-0.773 -9.365,-0.773 l 6.834,5.124 c 6.833,5.127 0,5.554 -2.136,6.834 m -15.803,63.64 c 1.709,2.136 4.272,19.647 9.824,24.202 6.388,5.242 29.224,19.207 48.931,25.807 -21.023,-4.83 -49.628,-22.115 -56.904,-28.084 -5.552,-4.556 -8.115,-22.066 -9.824,-24.202 -1.708,-2.136 -57.232,-32.888 -57.232,-34.596 0,-1.71 -4.697,-11.106 17.511,-24.774 22.21,-13.666 33.742,-10.248 36.731,-10.248 1.103,0 3.655,0.986 6.544,2.167 -4.445,-0.46 -15.723,-1.688 -35.301,10.36 -22.211,13.668 -17.511,23.064 -17.511,24.773 0,1.708 55.523,32.459 57.231,34.595 M 261.96,-94.18 c 0.051,0.838 -1.318,1.76 -2.746,3.487 v -6.827 l 0.986,-0.468 c 0.635,1.267 1.682,2.508 1.76,3.808 m 56.564,-124.558 c -11.518,-4.987 -35.935,-4.307 -35.935,1.904 0,6.266 40.718,29.611 19.362,72.324 -8.959,17.92 -26.864,33.592 -45.053,47.473 -25.16,19.205 -50.862,34.982 -54.168,48.533 -4.859,19.924 -26.83,88.824 -51.745,94.555 0.136,0.085 0.263,0.148 0.406,0.243 0.821,0.554 2.321,0.23 3.49,0.108 1.113,-0.117 2.2,-0.495 3.298,-0.759 0.037,0.817 0.24,1.877 0.342,2.791 20.412,-4.084 38.902,-50.877 47.726,-78.991 -0.017,-0.588 -0.02,-1.185 0.047,-1.838 0.06,-0.58 -0.396,-1.203 -0.56,-1.82 -0.553,-2.105 0.168,-3.248 2.453,-3.111 0.035,0.002 0.071,0.008 0.105,0.01 1.024,-3.526 1.839,-6.561 2.411,-8.909 1.237,-5.074 5.617,-10.461 11.93,-16.22 -0.085,-0.602 -0.011,-1.27 0.278,-2.026 0.294,-0.781 2.685,-1.646 3.405,-1.232 0.009,0.004 0.014,0.01 0.023,0.013 23.877,-20.162 67.73,-44.833 83.586,-76.542 21.356,-42.711 -19.364,-66.059 -19.364,-72.325 0,-4.994 15.787,-6.408 27.963,-4.181 m -617.227,329.353 c -1.757,4.391 -5.21,2.57 -9.309,-0.29 0.513,-0.423 0.964,-1.06 1.336,-1.987 3.418,-8.544 14.093,-19.648 19.22,-15.377 0.623,0.521 1.479,1.205 2.504,1.997 -5.178,2.184 -11.312,9.559 -13.751,15.657 m -28.719,-7.256 c 1.615,0.114 3.312,0.223 5.027,0.319 -0.665,-0.389 -1.332,-0.751 -1.999,-1.057 -0.294,0.115 -0.591,0.229 -0.879,0.337 -0.674,0.25 -1.411,0.331 -2.149,0.401"
             style="fill:#a7a9ac;fill-opacity:1;fill-rule:nonzero;stroke:none"
             id="path9285" />
        </g>
        <g
           id="g9287"
           transform="translate(745.876,655.1855)">
          <path
             d="m 0,0 c -0.38,-0.011 -0.792,0.013 -1.21,0.042 0.318,1.401 0.743,2.796 1.315,4.166 0.936,2.308 2.286,4.475 3.903,6.404 C 3.684,9.869 3.517,8.955 3.479,8.171 3.327,5.018 3.427,1.853 3.427,-1.539 2.008,-0.866 0.991,0.029 0,0 m 62.658,-69.252 c -1.828,-3.114 -5.315,-4.694 -7.499,-3.257 -0.58,0.381 -1.174,1.474 -1.04,2.08 0.418,1.875 5.549,2.954 8.546,1.855 0,-0.432 0.048,-0.585 -0.007,-0.678 m -30.031,-58.064 c -1.723,-1.851 -3.546,-3.623 -5.139,-5.582 -1.355,-1.668 -3.087,-2.553 -4.418,-0.784 -0.901,1.195 -1.107,3.542 -0.588,5.006 0.544,1.535 2.413,2.56 3.545,3.937 1.82,2.214 2.056,4.14 -0.728,6.08 -0.009,0.004 -0.013,0.012 -0.021,0.017 -1.167,0.83 -1.573,2.761 -2.326,4.186 1.578,0.785 3.085,1.925 4.753,2.249 1.412,0.273 2.963,-0.164 4.472,-0.386 0.149,-0.025 0.302,-0.055 0.45,-0.071 z m 0,-58.603 c -3.241,1.456 -6.59,2.716 -9.687,4.433 -2.18,1.209 -4.031,2.664 -6.688,1.287 -2.155,-1.116 -2.817,0.418 -2.874,2.12 -0.11,3.316 -0.142,6.644 0.063,9.951 0.06,0.979 0.788,2.39 1.599,2.769 3.394,1.582 6.964,2.774 10.408,4.253 2.496,1.073 4.088,0.183 4.717,-2.171 0.594,-2.223 1.767,-5.084 -1.563,-6.127 -2.875,-0.901 -3.175,-2.169 -1.561,-4.371 1.847,-2.517 3.725,-5.012 5.586,-7.518 z m 0,-21.591 c -2.018,0.303 -4.088,0.42 -6.032,0.977 -1.209,0.348 -2.579,1.145 -3.204,2.156 -0.392,0.632 0.151,2.552 0.838,2.975 1.027,0.633 2.697,0.886 3.828,0.507 1.647,-0.549 3.057,-1.805 4.57,-2.76 z m 0,-39.328 c -2.12,0.613 -4.303,1.201 -4.041,4.112 0.23,2.558 1.008,4.753 4.041,5.142 z m 0,-36.242 c -1.454,2.822 -3.265,5.52 -4.287,8.49 -2.045,5.942 -1.586,6.6 4.287,9.244 z m 0,-40.098 c -5.684,-1.418 -8.622,1.748 -6.44,6.424 0.745,1.598 4.214,1.924 6.44,2.83 z m -11.662,18.836 c -1.678,-0.347 -3.917,-1.408 -4.958,-0.72 -2.111,1.398 -3.58,3.767 -4.739,5.08 1.603,9.127 1.334,10.322 8.967,6.47 2.346,-1.181 4.43,-3.004 6.361,-4.824 0.771,-0.726 1.237,-2.328 1.022,-3.359 -0.144,-0.694 -1.681,-1.213 -2.68,-1.584 -1.28,-0.475 -2.632,-0.779 -3.973,-1.063 M 4.98,-273.355 c -0.642,0.425 -1.119,1.228 -1.415,1.963 -0.08,0.195 0.709,0.931 1.216,1.15 5.589,2.402 18.538,-3.717 19.971,-9.406 0.156,-0.619 0.253,-1.256 0.336,-1.678 0.099,-3.043 -1.738,-4.574 -4.138,-3.094 -4.012,2.475 -9.098,3.473 -11.504,8.414 -0.629,1.291 -3.004,1.678 -4.466,2.651 m -1.351,-17.43 v 9.004 c 3.619,-3.436 3.705,-6.836 0,-9.004 m 1.296,83.91 c 0.972,0.135 2.572,-0.441 3.024,-1.225 0.798,-1.388 0.933,-3.158 1.369,-4.861 -0.311,-0.969 -0.335,-2.349 -0.993,-2.801 -1.131,-0.773 -2.658,-0.964 -4.018,-1.4 -0.29,2.566 -0.729,5.129 -0.787,7.701 -0.02,0.903 0.801,2.504 1.405,2.586 m -1.67,52.221 c -0.193,-2.862 -0.696,-5.786 -1.604,-8.501 -1.579,-4.721 -3.987,-5.645 -8.118,-2.947 -2.058,1.345 -3.83,3.459 -5.044,5.612 -0.544,0.966 0.243,3.138 1.065,4.316 1.67,2.395 3.081,4.09 -0.008,6.816 -0.628,0.554 -0.546,2.395 -0.108,4.125 0.246,0.966 0.598,1.901 1.006,2.551 1.926,3.068 4.895,5.466 7.217,8.315 0.71,0.875 0.794,2.293 1.069,3.483 0.53,2.293 2.458,2.931 4.281,1.452 1.017,-0.827 2.165,-1.496 4.111,-2.818 -0.124,-0.266 -0.247,-0.75 -0.425,-1.255 -0.212,-0.605 -0.505,-1.242 -1.007,-1.614 -2.77,-2.048 -2.392,-4.824 -2.372,-7.616 0.031,-3.972 0.203,-7.961 -0.063,-11.919 m -1.511,-52.571 c -0.786,-1.441 -3.473,-2.738 -5.176,-2.587 -2.983,0.261 -5.57,2.39 -4.584,5.776 1.166,4.004 2.956,7.885 4.95,11.563 1.206,2.231 3.049,2.166 4.11,-0.531 0.861,-2.187 1.739,-4.368 2.319,-5.824 -0.571,-3.405 -0.45,-6.252 -1.619,-8.397 m 1.454,-53.152 c -6.058,0.264 -9.867,4.91 -9.128,10.561 0.258,1.965 -0.167,4.269 -1.007,6.082 -2.468,5.32 -2.286,6.863 2.471,10.236 2.15,1.525 4.479,2.805 6.727,4.193 0.313,-0.398 0.625,-0.796 0.937,-1.195 z m -4.767,-24.658 c -1.109,0.539 -2.003,1.519 -2.983,2.326 0.573,0.539 1.325,1.637 1.68,1.522 1.193,-0.395 2.243,-1.219 3.988,-2.26 -1.387,-0.856 -2.304,-1.774 -2.685,-1.588 m -16.856,73.453 c -1.685,-0.992 -2.177,-1.844 -1.213,-3.635 0.59,-1.091 0.992,-2.422 0.995,-3.644 0.003,-0.846 -0.64,-1.971 -1.346,-2.442 -0.439,-0.291 -1.655,0.225 -2.317,0.68 -5.313,3.637 -10.691,5.379 -16.793,1.623 -3.698,-2.279 -8.47,1.611 -8.353,7.104 -0.006,-0.08 -0.135,0.496 0.065,0.656 4.626,3.693 2.78,11.989 10.103,13.956 1.599,0.429 2.459,3.113 4.019,4.272 3.675,2.728 7.397,2.329 10.687,-0.78 0.279,-0.264 0.488,-0.702 0.811,-0.804 4.289,-1.353 5.441,-3.66 2.708,-7.619 -0.342,-0.499 0.583,-2.27 1.333,-3.056 2.571,-2.69 2.552,-4.397 -0.699,-6.311 m 0.477,-46.508 c -2.396,-0.396 -4.842,-0.767 -6.6,1.239 0.039,0.453 0.078,0.9 0.118,1.349 2.032,0 4.071,0.074 6.095,-0.06 0.4,-0.028 0.921,-0.809 1.058,-1.327 0.09,-0.336 -0.368,-1.15 -0.671,-1.201 m -9.721,-16.447 c -0.369,0.523 -0.736,1.043 -1.104,1.564 1.527,2.075 3.051,4.145 4.577,6.217 0.464,-0.029 0.93,-0.058 1.396,-0.088 0.697,-1.705 1.397,-3.412 2.096,-5.115 z m -25.175,85.617 c -0.086,-0.73 -1.751,-1.277 -2.698,-1.905 -0.584,0.96 -1.797,2.059 -1.621,2.85 0.39,1.749 1.475,3.341 2.279,4.997 0.518,-0.084 1.036,-0.171 1.553,-0.258 0.21,-1.899 0.702,-3.833 0.487,-5.684 m -24.002,28.338 c -1.122,0.095 -2.883,1.775 -2.999,2.877 -0.331,3.121 2.093,6.041 4.367,5.456 1.259,-0.324 2.27,-1.614 3.046,-2.394 0.115,-0.112 0.219,-0.215 0.322,-0.3 -0.026,-0.204 -0.067,-0.384 -0.098,-0.576 -0.575,-3.483 -1.94,-5.294 -4.638,-5.063 m -9.969,19.828 c -0.656,1.008 -2.25,1.893 -3.463,1.965 -4.558,0.263 -6.3,1.578 -7.371,6.208 -0.171,0.74 -0.293,1.541 -0.67,2.171 -2.44,4.065 -2.125,5.929 1.577,9.009 0.568,0.473 1.456,1.033 1.492,1.598 0.345,5.472 4.785,5.428 8.402,6.005 1.421,0.226 3.092,-1.116 4.648,-1.745 -0.892,-1.679 -1.617,-3.486 -2.745,-4.988 -0.582,-0.775 -1.881,-1.014 -2.566,-1.351 1.173,-2.815 1.927,-5.342 3.272,-7.499 0.562,-0.9 2.359,-1.133 3.648,-1.447 1.482,-0.361 3.916,-0.003 4.339,-0.802 0.687,-1.3 0.425,-3.4 -0.081,-4.952 -0.538,-1.651 -1.755,-3.109 -2.801,-4.562 -2.22,-3.091 -5.634,-2.765 -7.681,0.39 m -22.246,62.836 c -2.604,1.011 -4.265,4.445 -6.339,6.814 2.083,1.271 4.026,3.038 6.288,3.678 2.409,0.683 4.392,-2.184 4.344,-6.164 -0.128,-2.272 -1.503,-5.413 -4.293,-4.328 m 3.623,-62.233 c -1.353,-2.386 -3.109,-4.542 -4.713,-6.784 -0.957,2.582 -1.912,5.164 -2.748,7.418 0.617,1.811 1.184,3.963 1.363,3.932 1.804,-0.324 3.673,-0.781 5.242,-1.685 0.663,-0.384 1.219,-2.242 0.856,-2.881 m -13.302,53.294 c -0.894,-0.47 -1.859,-1.042 -2.819,-1.099 -1.993,-0.116 -4.48,-0.598 -5.859,0.366 -1.125,0.787 -1.353,3.486 -1.228,5.283 0.175,2.518 1.848,4.129 4.55,4.307 0.634,0.042 1.274,0.005 1.91,0.005 l 0.117,0.39 c 1.529,-0.495 3.414,-0.598 4.503,-1.582 1.465,-1.324 2.316,-3.329 3.432,-5.038 -1.533,-0.884 -3.044,-1.809 -4.606,-2.632 m -0.062,-89.179 c 0.147,-0.065 0.293,-0.133 0.439,-0.199 2.598,-1.196 4.702,-1.224 7.094,0.498 1.375,0.99 3.265,1.264 5.544,2.086 -0.261,-2.742 -0.509,-4.629 -0.606,-6.522 -0.09,-1.787 -0.019,-3.579 -0.019,-5.479 1.132,-0.652 2.415,-1.202 3.464,-2.045 1.471,-1.175 3.573,-2.401 3.889,-3.922 0.265,-1.277 -2.088,-2.9 -2.477,-4.558 -0.678,-2.908 -2.559,-4.316 -4.779,-5.957 -1.233,-0.913 -1.238,-3.397 -1.987,-5.089 -0.462,-1.048 -1.275,-1.943 -1.93,-2.908 -0.654,0.938 -1.376,1.832 -1.95,2.819 -1.359,2.324 -2.355,4.936 -4.048,6.976 -1.62,1.95 -3.477,2.026 -5.901,0.03 -2.226,-1.833 -5.441,-2.761 -8.367,-3.347 -2.052,-0.409 -3.298,1.059 -2.288,3.456 0.376,0.892 1.034,2.255 0.67,2.771 -3.03,4.282 -0.242,7.869 1.313,11.481 0.718,1.665 0.973,2.924 0.227,4.036 -0.326,0.483 -0.821,0.942 -1.583,1.39 -2.01,1.177 -5.201,2.942 -3.419,5.383 1.259,1.72 4.967,2.542 7.42,2.276 3.179,-0.344 6.301,-1.795 9.294,-3.176 m 23.3,-34.474 c 0.83,-0.345 1.066,-3.013 0.939,-4.586 -0.428,-5.322 -5.195,-6.802 -8.867,-8.97 -0.888,-0.528 -3.156,0.855 -4.518,1.763 -0.552,0.37 -0.789,2.455 -0.457,2.674 1.144,0.748 2.603,1.022 3.119,1.196 1.778,3.033 2.751,5.679 4.58,7.429 1.044,0.996 3.728,1.109 5.204,0.494 m 3.387,16.312 c 2.652,1.157 4.458,-0.204 5.645,-2.455 1.126,-2.135 2.137,-4.343 3.024,-6.591 1.068,-2.708 -0.867,-4.447 -6.374,-4.414 -1.693,1.447 -4.655,3.392 -6.803,6.007 -1.503,1.828 1.225,6.023 4.508,7.453 m 24.413,-50.833 c -0.107,-5.553 -3.463,-9.539 -7.678,-10.045 -1.006,-0.121 -2.322,0.254 -3.124,0.879 -3.615,2.818 -6.77,6.424 -10.736,8.529 -2.873,1.526 -6.747,1.293 -10.196,1.545 -1.179,0.086 -2.399,-0.879 -3.646,-1.107 -2.229,-0.407 -4.515,-0.559 -5.248,2.357 -0.641,2.539 1.445,5.998 3.923,5.457 6.355,-1.389 11.685,2.742 17.505,2.621 5.245,-0.109 10.733,-1.363 15.545,-3.435 2.113,-0.909 2.811,-5.102 3.655,-6.801 m 2.845,-43.027 c 1.146,0.75 2.605,1.021 3.119,1.197 1.78,3.033 2.752,5.679 4.582,7.428 1.044,0.998 3.727,1.111 5.204,0.496 0.828,-0.346 1.066,-3.016 0.939,-4.586 -0.428,-5.325 -5.195,-6.803 -8.867,-8.973 -0.889,-0.525 -3.156,0.855 -4.519,1.766 -0.551,0.369 -0.789,2.453 -0.458,2.672 m 12.986,-22.938 c -3.184,-0.031 -3.837,2.402 -4.16,5.809 0.554,0.392 2.024,1.632 2.164,1.496 1.641,-1.584 3.128,-3.344 4.457,-5.2 0.071,-0.101 -1.594,-2.097 -2.461,-2.105 m -36.171,34.93 c -1.156,0.146 -2.304,0.322 -3.411,0.64 -1.21,0.348 -2.578,1.145 -3.203,2.156 -0.392,0.633 0.15,2.553 0.839,2.977 1.024,0.627 2.696,0.883 3.826,0.504 1.286,-0.43 2.428,-1.287 3.587,-2.098 0.616,-0.433 0.983,-1.138 0.983,-1.888 0,-1.401 -1.232,-2.469 -2.621,-2.291 m -59.071,122.18 c -0.187,0.475 -0.39,0.952 -0.504,1.446 -0.45,1.96 -1.569,4.153 -1.032,5.803 0.324,0.997 3.26,1.084 4.973,1.713 1.422,0.521 2.772,1.239 3.81,1.713 0.545,0 0.733,0.055 0.793,-0.009 0.938,-1.015 2.847,-2.551 2.625,-2.987 -1.407,-2.74 5.378,-6.062 -0.629,-8.264 -0.934,-0.343 -1.81,-0.917 -2.621,-1.509 -3.38,-2.467 -5.896,-1.775 -7.415,2.094 m -1.844,80.774 c 0.034,0.376 0.089,0.853 0.325,1.093 2.979,3.004 6.516,0.266 9.782,0.759 0.893,0.135 2.121,-1.935 2.952,-2.754 -0.349,-1.52 -0.285,-2.671 -0.734,-2.927 -1.528,-0.877 -4.278,-2.414 -4.705,-1.957 -2.247,2.398 -8.136,0.062 -7.62,5.786 m -1.523,17.739 c -0.589,1.163 0.589,3.223 0.976,4.882 1.532,-0.493 3.118,-0.867 4.576,-1.526 0.769,-0.347 1.501,-1.087 1.912,-1.835 0.617,-1.122 1.562,-2.646 1.212,-3.555 -0.378,-0.98 -2.086,-1.447 -3.854,-2.529 -1.797,1.605 -3.918,2.774 -4.822,4.563 m -11.349,-116.215 c -0.1,1.255 -1.127,2.408 -1.475,3.678 -0.376,1.37 -0.454,2.817 -0.662,4.231 1.493,-0.131 3.07,-0.004 4.459,-0.456 2.067,-0.67 4.075,-1.618 5.961,-2.703 1.031,-0.594 2.348,-1.607 2.522,-2.609 0.619,-3.556 0.804,-7.19 1.177,-11.048 -6.206,-0.62 -11.569,3.727 -11.982,8.907 m -7.944,43.202 c -1.608,-3.929 -2.631,-4.437 -6.72,-2.805 -1.066,0.425 -2.169,0.837 -3.294,1.009 -2.585,0.393 -3.757,1.578 -3.592,4.396 0.1,1.691 -0.811,3.421 -1.091,5.164 -0.169,1.058 -0.333,2.361 0.143,3.185 0.285,0.494 1.945,0.634 2.746,0.319 4.062,-1.599 6.632,-0.277 9.71,2.833 3.21,3.241 7.756,5.218 11.863,7.484 2.286,1.261 3.967,0.81 3.75,-2.452 -0.081,-1.225 0.488,-2.491 0.881,-4.286 -0.324,-0.583 -0.639,-1.836 -1.441,-2.47 -2.615,-2.075 -2.911,-4.574 -2.145,-7.589 0.299,-1.181 0.251,-2.609 -0.144,-3.751 -0.267,-0.776 -1.347,-1.57 -2.188,-1.742 -0.544,-0.112 -1.32,0.882 -1.98,1.395 -1.272,0.987 -2.532,1.984 -3.8,2.979 -0.919,-1.215 -2.141,-2.306 -2.698,-3.669 m -2.831,-47.074 c -0.235,-2.213 -0.481,-4.462 -1.124,-6.577 -0.385,-1.268 -1.526,-2.308 -3.087,-4.533 -2.31,2.429 -3.87,3.965 -5.302,5.614 -0.954,1.096 -1.481,2.742 -2.626,3.457 -3.068,1.913 -2.758,4.396 -1.51,6.979 1.684,3.488 4.416,4.871 7.03,3.302 2.304,-1.386 4.287,-3.378 6.179,-5.327 0.564,-0.58 0.543,-1.946 0.44,-2.915 m -19.937,83.027 c -0.535,3.2 -2.968,2.789 -5.056,2.484 -2.624,-0.383 -5.61,-1.945 -7.062,1.481 -1.373,3.241 -1.18,6.402 1.102,9.71 1.867,2.704 2.76,6.252 3.448,9.558 0.765,3.677 6.531,8.308 10.13,7.522 2.636,-0.574 3.025,-4.866 0.713,-7.786 -1.102,-1.394 -3.17,-2.855 -3.099,-4.197 0.258,-4.996 0.929,-10.025 2.131,-14.873 0.294,-1.184 3.198,-1.719 4.902,-2.555 6.165,1.261 9.676,-2.566 8.682,-8.26 -0.153,-0.883 -0.345,-1.761 -0.49,-2.644 -0.599,-3.652 -3.441,-5.355 -6.266,-3.13 -4.165,3.28 -8.178,6.976 -9.135,12.69 m -5.286,-92.609 c -1.902,0.255 -3.659,1.594 -5.477,2.478 1.375,1.071 2.75,2.14 4.577,3.558 1.827,-1.515 3.255,-2.699 4.684,-3.884 -1.269,-0.774 -2.641,-2.307 -3.784,-2.152 m -9.674,47.28 c -3.049,-0.365 -5.699,-0.616 -8.326,-1.019 -2.514,-0.386 -4.1,0.388 -5.14,2.857 -0.59,1.396 -2.107,2.369 -2.966,3.689 -1.542,2.377 -3.059,4.799 -4.224,7.368 -0.275,0.604 0.662,2.156 1.438,2.763 2.146,1.68 4.434,3.207 6.797,4.566 1.35,0.776 3.22,1.831 4.365,1.413 0.996,-0.366 1.575,-2.569 1.849,-4.05 0.444,-2.376 0.229,-4.892 0.813,-7.216 0.267,-1.062 1.722,-1.88 2.74,-2.679 1.047,-0.825 3,-1.322 3.205,-2.259 1.091,-4.99 4.781,-7.007 8.87,-8.951 1.123,-0.535 1.953,-2.148 2.394,-3.446 0.193,-0.569 -1.149,-2.342 -1.423,-2.264 -1.218,0.344 -2.302,1.161 -3.433,1.81 -0.749,0.431 -1.458,1.15 -2.25,1.254 -5.296,0.694 -5.303,0.652 -4.709,6.164 m -13.863,-72.138 c -1.44,-0.737 -4.25,0.511 -6.114,1.527 -1.317,0.721 -2.054,2.502 -3.491,4.38 1.828,2.011 3.877,5.171 4.594,4.895 2.65,-1.027 5.413,-2.808 6.988,-5.094 0.738,-1.073 -0.596,-4.999 -1.977,-5.708 m -18.344,15.614 c -1.162,3.741 -2.484,7.43 -3.737,11.14 0.251,0.077 0.503,0.15 0.753,0.228 0,0.891 0.111,1.799 -0.019,2.673 -0.76,5.156 2.437,9.35 7.845,10.216 4.103,0.658 7.097,-2.307 7.916,-7.838 1.24,-8.372 -1.412,-14.2 -8.123,-18.07 -2.284,-1.315 -3.782,-1.098 -4.635,1.651 m -9.956,44.688 c -0.257,0.282 -0.714,0.765 -0.633,0.914 2.448,4.513 -2.671,7.455 -2.385,11.53 0.069,0.956 -0.667,1.971 -0.588,2.922 0.1,1.193 0.66,2.346 1.022,3.516 0.716,-0.905 1.505,-1.765 2.114,-2.737 0.305,-0.486 0.281,-1.179 0.436,-1.932 3.048,0.32 6.126,-0.987 8.416,2.539 0.609,0.939 4.102,0.547 5.97,-0.102 0.945,-0.329 1.746,-2.615 1.695,-3.981 -0.183,-4.792 -0.315,-9.664 -1.312,-14.325 -1.069,-4.995 -6.858,-6.368 -10.558,-2.868 -1.49,1.407 -2.799,3.001 -4.177,4.524 m -10.62,-65.966 4.784,0.316 c -0.043,-0.039 -0.087,-0.096 -0.13,-0.137 z m -6.568,-0.664 c -1.461,-0.19 -3.008,-0.426 -4.251,-1.12 -0.304,-0.169 0.245,-2.281 0.713,-3.367 2.789,-6.437 0.073,-12.564 -6.476,-14.869 -3.112,-1.094 -6.076,-2.601 -8.349,-3.592 -7.232,0.08 -10.268,4.397 -8.183,10.36 0.085,0.24 0.357,0.527 0.29,0.691 -1.834,4.5 1.576,6.73 3.833,9.695 0.509,0.672 1.036,1.274 1.589,1.805 1.76,1.703 3.781,2.652 6.442,2.549 3.163,-0.125 4.872,1.219 4.999,4.418 0.213,5.51 5.04,4.711 8.265,5.557 0.946,0.248 2.692,-2.321 3.973,-3.692 0.51,-0.543 0.899,-1.297 1.092,-2.019 0.513,-1.916 0.904,-3.866 1.335,-5.803 0.02,-0.088 0.039,-0.178 0.059,-0.266 -1.779,-0.107 -3.568,-0.119 -5.331,-0.347 m -19.683,-49.803 c -1.844,2.105 -3,3.426 -4.155,4.744 1.289,1.088 2.754,3.209 3.829,3.027 1.755,-0.297 3.255,-2.095 4.864,-3.261 -1.253,-1.245 -2.506,-2.491 -4.538,-4.51 m 3.025,-59.36 c -0.889,-3.742 -2.316,-7.554 -6.409,-8.927 -3.677,-1.233 -2.87,2 -3.469,4.357 0.491,1.44 1.293,3.194 1.653,5.035 0.388,2 0.271,4.094 0.554,6.121 0.146,1.026 0.419,2.438 1.128,2.87 0.729,0.445 2.398,0.304 3.063,-0.266 2.764,-2.379 4.35,-5.541 3.48,-9.19 m -4.065,-43.91 c -1.289,1.057 -2.577,2.11 -4.765,3.899 2.144,2.314 3.537,3.82 4.93,5.326 1.113,-1.645 3.026,-3.256 3.091,-4.944 0.055,-1.38 -2.088,-2.849 -3.256,-4.281 m -8.421,126.477 c -1.017,1.172 -2.172,2.262 -2.931,3.582 -0.155,0.271 1.177,1.398 2.434,2.824 1.223,-1.66 2.474,-2.652 2.609,-3.781 0.092,-0.779 -1.353,-1.744 -2.112,-2.625 m -4.126,-61.826 c -1.387,-0.817 -3.002,-1.242 -4.156,-1.696 -1.377,3.012 -2.988,5.643 -3.707,8.498 -0.335,1.338 1.058,3.108 1.771,4.953 2.967,-2.14 5.175,-3.435 6.984,-5.15 0.99,-0.941 1.833,-2.623 1.759,-3.912 -0.055,-0.963 -1.563,-2.049 -2.651,-2.693 m 0.857,-118.379 c -0.173,-1.656 -2.51,-3.084 -3.864,-4.615 -3.383,0.771 -9.189,7.57 -8.081,9.808 0.685,1.391 3.027,2.762 4.616,2.752 3.843,-0.025 7.729,-4.135 7.329,-7.945 m -9.237,147.074 c 1.39,0.613 3.986,0.016 5.251,-1.01 1.513,-1.228 2.185,-3.494 3.477,-5.76 -3.434,-0.57 -6.354,-0.96 -8.443,2.497 -0.963,1.593 -2.68,3.212 -0.285,4.273 m -21.923,46.557 c -0.339,-0.637 -1.757,-1.059 -2.631,-0.994 -6.332,0.482 -11.202,5.38 -11.436,11.572 -0.011,0.326 -0.02,0.652 -0.006,0.984 0.053,1.274 2.461,3.682 2.774,3.528 4.357,-2.147 8.342,-0.141 12.335,0.873 3.58,0.908 3.759,-1.51 4.599,-4.471 -0.022,-0.051 -0.048,-0.106 -0.072,-0.154 -1.676,-3.481 -3.501,-7.469 -5.563,-11.338 m -27.518,14.318 c -4.861,-0.076 -7.973,2.977 -7.976,7.822 0,3.931 3.101,8.113 6.099,8.22 3.066,0.108 6.948,-4.955 6.879,-8.97 -0.069,-3.857 -2.313,-7.029 -5.002,-7.072 m -11.896,71.364 c -0.625,-2.772 -5.129,-3.976 -3.293,-7.589 1.447,-2.839 2.982,-5.684 4.895,-8.212 1.687,-2.229 1.72,-4.097 0.234,-6.286 -3.223,-4.748 -7.632,-6.744 -11.238,-4.63 -1.553,0.911 -2.85,2.539 -3.809,4.118 -1.58,2.607 -2.705,5.486 -4.214,8.141 -0.404,0.715 -1.509,1.474 -2.284,1.467 -5.282,-0.048 -4.373,4.82 -5.527,7.541 -0.676,1.592 1.189,4.317 2.074,6.469 0.152,0.372 1.104,0.416 1.678,0.609 0.688,-1.836 1.316,-3.51 1.941,-5.182 0.412,0.063 0.825,0.125 1.238,0.19 0,1.175 0.4,2.558 -0.075,3.495 -1.516,2.982 0.309,4.438 2.526,4.653 3.476,0.337 7.056,0.035 10.551,-0.36 2.815,-0.317 5.629,-2.083 7.779,1.565 0.365,0.617 3.585,0.565 3.822,0.053 0.723,-1.56 0.859,-3.52 0.685,-5.269 -0.04,-0.407 -2.209,-0.733 -3.422,-0.851 -1.224,-0.121 -3.513,0.298 -3.561,0.078 m -29.791,59.781 c -2.274,-0.175 -4.548,-0.373 -7.681,-0.633 1.96,2.822 3.07,4.868 4.605,6.521 2.244,2.418 3.995,0.56 5.252,-1.266 0.868,-1.261 1.172,-2.908 1.727,-4.38 -1.301,-0.079 -2.604,-0.141 -3.903,-0.242 m -0.243,-27.561 c -2.406,-1.529 -3.501,-3.403 -3.96,-6.152 -0.832,-4.981 -3.52,-5.81 -7.371,-2.553 -0.776,0.655 -1.639,1.233 -2.533,1.717 -4.115,2.228 -4.518,3.493 -1.076,6.787 3.196,3.061 6.651,6.062 10.493,8.185 3.449,1.906 6.703,-0.188 6.837,-4.445 -0.485,-0.761 -1.081,-2.709 -2.39,-3.539 m -13.067,-34.062 c -0.077,-0.073 -1.691,1.03 -1.611,1.344 0.264,1.061 0.968,2.012 1.788,3.528 1.016,-1.082 2.117,-1.928 1.994,-2.18 -0.495,-1.02 -1.327,-1.904 -2.171,-2.692 m -7.173,76.75 c -2.625,-2.844 -5.382,-5.571 -8.14,-8.288 -0.221,-0.217 -0.737,-0.136 -0.939,-0.167 -3.27,-0.012 -6.109,3.456 -5.539,6.659 0.689,3.847 3.699,5.859 6.943,6.272 2.244,0.284 4.792,-1.448 7.114,-2.481 0.427,-0.19 0.823,-1.711 0.561,-1.995 m -11.068,-13.617 c 1.158,-1.535 2.112,-2.375 2.404,-3.403 0.115,-0.399 -1.634,-1.883 -1.892,-1.737 -0.953,0.539 -1.875,1.449 -2.308,2.437 -0.184,0.417 0.878,1.38 1.796,2.703 m -0.95,-50.258 c -0.62,-0.099 -1.458,1.179 -2.198,1.832 1.228,0.904 2.358,2.058 3.728,2.592 0.557,0.217 1.639,-0.912 2.482,-1.429 0.014,-0.416 0.031,-0.834 0.046,-1.251 -1.345,-0.623 -2.649,-1.521 -4.058,-1.744 m -6.48,89.389 c -1.917,1.261 -3.677,2.429 -2.531,5.193 1.135,2.731 2.925,4.68 6.027,4.435 1.981,-0.158 3.888,-1.074 5.866,-1.471 2.655,-0.535 5.329,-1.136 8.021,-1.282 4.401,-0.241 1.942,-3.548 2.755,-5.059 -0.428,-3.194 -0.496,-5.64 3.235,-6.599 0.997,-0.254 2.11,-2.886 1.88,-4.201 -0.188,-1.091 -2.334,-2.657 -3.511,-2.572 -1.888,0.136 -3.693,1.449 -5.527,2.282 -2.824,1.281 -5.669,2.515 -8.447,3.888 -1.934,0.958 -3.821,2.038 -5.629,3.218 -0.83,0.542 -1.309,1.624 -2.139,2.168 m -5.851,-56.059 c -0.038,-0.06 -1.179,0.312 -1.21,0.558 -0.283,2.219 -0.974,4.603 -0.425,6.636 0.344,1.275 2.609,2.034 4.251,3.194 1.035,-0.864 2.466,-1.85 2.375,-2.016 -1.534,-2.863 -3.251,-5.628 -4.991,-8.372 m -4.93,12.013 c 0.371,-4.42 -1.756,-4.769 -5.084,-4.261 -0.052,-0.326 -0.103,-0.65 -0.154,-0.977 -4.303,0.772 -8.692,1.228 -12.879,2.407 -4.053,1.143 -4.453,3.967 -1.361,6.779 0.47,0.428 0.977,0.896 1.555,1.107 5.32,1.948 8.651,5.104 9.355,11.284 0.277,2.432 3.102,4.983 5.372,6.665 2.212,1.637 5.025,0.558 6.207,-1.858 1.897,-3.878 3.471,-7.965 4.67,-12.111 0.621,-2.151 0.155,-4.356 -3.33,-3.973 -3.507,0.388 -4.539,-2.806 -4.351,-5.062 m -5.805,-24.655 c -1.43,0.284 -2.854,1.088 -4.031,1.999 -0.999,0.772 -1.648,1.995 -2.451,3.019 1.063,0.655 2.126,1.313 2.493,1.541 4.345,0.064 5.444,-2.444 6.317,-4.981 0.092,-0.265 -1.644,-1.713 -2.328,-1.578 m -22.194,38.259 c -0.495,1.454 -1.171,2.855 -1.546,4.335 -0.748,2.928 0.719,4.897 3.714,5.447 1.209,0.223 2.353,0.787 2.977,1.002 -1.665,3.282 -3.066,5.612 -3.976,8.123 -0.245,0.677 0.797,2.487 1.593,2.752 2.234,0.749 7.987,-2.167 9.235,-4.305 0.71,-1.214 1.664,-2.355 2.066,-3.665 0.506,-1.645 1.329,-3.84 0.669,-5.079 -2.257,-4.23 -4.79,-8.438 -9.138,-10.964 -2.453,-1.426 -4.66,-0.4 -5.594,2.354 m 0.472,-37.693 c -1.045,1.693 -1.911,2.68 -2.206,3.816 -0.098,0.367 1.613,1.758 1.949,1.589 1.093,-0.552 2.088,-1.506 2.753,-2.541 0.146,-0.231 -1.22,-1.429 -2.496,-2.864 m -10.134,50.629 c -0.856,-0.962 -1.6,-2.495 -1.526,-3.716 0.2,-3.254 -1.204,-5.042 -4.146,-5.996 -0.836,-0.271 -1.613,-0.761 -2.369,-1.227 -1.54,-0.946 -3.513,-3.092 -4.481,-2.699 -2.486,1.004 -5.056,2.748 -6.579,4.91 -1.441,2.044 -1.593,4.997 -2.311,7.55 -0.578,5.217 3.292,6.093 6.772,7.558 4.897,2.062 9.526,2.783 14.012,-0.945 2.044,-1.699 2.583,-3.233 0.628,-5.435 m -6.185,-41.609 c -0.966,0.32 -2.002,1.405 -2.296,2.384 -0.154,0.518 1.198,1.485 2.316,2.758 1.028,-1.496 2.052,-2.392 2.168,-3.394 0.061,-0.539 -1.659,-1.921 -2.188,-1.748 m 1.465,56.031 c -2.76,-0.423 -3.078,1.699 -3.776,3.724 2.51,1.01 4.343,0.854 5.142,-1.566 0.18,-0.543 -0.78,-2.068 -1.366,-2.158 m -2.33,21.803 c 2.315,0.476 4.579,-0.456 4.335,-3.309 -0.113,-1.334 -1.549,-2.553 -3.134,-4.96 -2.204,2.499 -3.566,4.04 -4.926,5.581 1.233,0.936 2.357,2.407 3.725,2.688 m 37.396,-7.135 c 1.367,-1.742 2.364,-2.744 2.943,-3.948 0.134,-0.28 -1.596,-1.885 -1.727,-1.795 -1.167,0.798 -2.275,1.757 -3.123,2.879 -0.165,0.218 0.872,1.345 1.907,2.864 m 47.529,19.483 c 2.121,-0.662 4.393,-1.071 6.264,-2.164 0.487,-0.283 0.018,-2.834 -0.538,-4.117 -0.773,-1.789 -2.227,-2.121 -3.443,-0.29 -1.102,1.662 -1.993,3.461 -2.978,5.198 0.23,0.458 0.464,0.916 0.695,1.373 m 12.355,-16.94 c 1.079,1.786 2.412,3.419 3.662,5.103 0.5,-0.618 1.555,-1.454 1.41,-1.812 -0.742,-1.861 -1.791,-3.6 -3.19,-6.239 -1.107,1.689 -2.058,2.658 -1.882,2.948 m 5.742,-32.892 c -0.594,-1.655 -1.747,-3.109 -2.682,-4.641 -0.765,0.835 -2.274,1.811 -2.149,2.479 0.31,1.657 1.37,3.174 2.65,5.828 1.24,-2.001 2.393,-3.079 2.181,-3.666 m -2.749,46.148 c 1.127,-1.066 1.897,-1.794 2.669,-2.523 -0.628,-0.636 -1.422,-1.895 -1.849,-1.78 -1.05,0.281 -1.928,1.194 -2.876,1.853 0.589,0.703 1.179,1.405 2.056,2.45 m 31.704,-113.157 c 0.027,-0.856 -1.418,-2.546 -2.006,-2.46 -1.044,0.153 -2.525,1.253 -2.711,2.178 -0.187,0.927 0.992,2.125 2.133,4.244 1.357,-1.957 2.551,-2.941 2.584,-3.962 m -22.504,38.798 c 1.257,2.626 2.068,5.543 3.836,7.66 1.586,1.899 4.27,4.097 6.397,4.027 2.789,-0.093 6.512,-0.2 8.102,-3.973 0.594,-1.41 1.842,-2.786 3.152,-3.6 2.645,-1.646 3.562,-3.556 2.076,-6.401 -1.656,-3.169 -5.842,-5.4 -8.199,-4.027 -2.512,1.463 -5.09,3.085 -7.024,5.203 -2.38,2.613 -4.341,4.539 -7.477,1.229 -0.146,-0.151 -0.482,-0.185 -0.721,-0.165 -0.227,0.021 -0.444,0.184 -0.142,0.047 m 21.205,29.8 c -1.95,-1.021 -3.047,-2.051 -4.095,-2.005 -0.876,0.04 -1.699,1.337 -2.546,2.079 1.032,0.854 1.963,2.107 3.136,2.407 0.682,0.176 1.754,-1.179 3.505,-2.481 m -17.603,40.248 c 1.004,-0.309 2.318,-0.323 2.945,-0.986 1.391,-1.473 2.397,-3.301 3.636,-4.925 1.554,-2.04 3.153,-2.175 5.632,-0.993 2.629,1.251 5.973,2.357 8.611,1.767 1.871,-0.419 3.306,-3.637 4.529,-5.832 0.908,-1.629 1.032,-3.675 1.761,-5.429 0.359,-0.864 1.162,-1.809 1.999,-2.164 2.699,-1.139 5.488,-2.081 8.278,-2.992 3.699,-1.206 3.826,-1.305 4.277,-5.391 -2.233,0.121 -4.999,1.138 -6.591,0.187 -3.845,-2.297 -6.917,-2.984 -10.671,0.17 -0.88,0.738 -3.544,-0.711 -5.404,-1.058 -1.706,-0.316 -3.55,-1.005 -5.138,-0.655 -4.994,1.107 -5.637,2.023 -5.213,7.145 0.481,5.783 -1.529,10.441 -5.672,14.338 -1.114,1.048 -2.449,2.033 -3.113,3.336 -0.46,0.902 0.057,2.303 0.134,3.482 m 19.343,-45.912 c 0.273,2.758 2.272,5.403 3.811,7.916 0.241,0.392 2.448,0.226 3.074,-0.377 2.196,-2.121 4.483,-4.319 6.023,-6.912 2.195,-3.702 -0.535,-7.395 -5.073,-7.353 -2.671,0.025 -8.108,3.978 -7.835,6.726 m 2.808,-118.457 c 0.025,-0.862 -1.222,-1.761 -2.331,-3.182 -1.061,1.316 -2.352,2.369 -2.17,2.799 0.482,1.133 1.602,1.996 2.466,2.967 0.731,-0.862 2.008,-1.702 2.035,-2.584 m -0.601,13.153 c -1.15,0.713 -2.181,2.621 -2.178,3.987 0.003,3.148 0.672,6.292 1.031,9.129 0,5.559 0.626,6.274 5.918,7.409 1.744,0.375 3.521,0.765 5.166,1.436 2.919,1.19 4.653,0.027 5.837,-2.543 1.49,-3.245 -0.212,-13.811 -2.636,-16.46 -1.885,-2.058 -10.853,-4.377 -13.138,-2.958 m 23.711,103.283 c 1.054,3.655 1.691,7.439 2.889,11.04 0.399,1.197 1.984,2.844 3.007,2.829 3.268,-0.048 6.667,-0.357 9.75,-1.373 2.733,-0.899 5.118,-2.866 7.643,-4.385 2.148,-1.293 2.7,-2.752 1.044,-5.04 -0.952,-1.312 -1.177,-3.151 -1.73,-4.751 -3.327,-6.246 -13.183,-5.542 -14.492,-14.39 -1.156,0.649 -1.875,1.064 -2.604,1.46 -4.714,2.568 -5.652,2.237 -7.224,-3.028 -0.718,-2.393 -2.044,-3.37 -4.502,-3.095 -2.034,0.227 -4.132,0.072 -6.114,0.493 -0.903,0.192 -2.156,1.309 -2.236,2.108 -0.081,0.804 0.924,2.193 1.764,2.512 1.767,0.673 3.747,0.757 5.618,1.19 2.443,0.566 3.768,1.695 4.096,4.656 0.37,3.33 2.14,6.484 3.091,9.774 m 18.449,33.194 c 3.4,3.542 7.14,6.757 11.134,10.444 0.162,-1.115 0.253,-1.687 0.327,-2.261 1.188,-9.148 1.219,-9.228 -7.64,-12.76 -1.264,-0.502 -3.015,0.213 -4.539,0.365 0.208,1.433 -0.099,3.362 0.718,4.212 m 13.954,-39.813 c 3.937,-0.34 7.861,-0.86 11.751,-1.558 0.248,-0.044 0.386,-1.876 0.224,-2.816 -0.688,-4.016 -1.389,-8.04 -2.322,-12.004 -0.672,-2.857 -1.69,-5.413 -4.846,-6.865 -2.332,-1.072 -4.11,-3.304 -6.254,-4.855 -1.023,-0.739 -2.32,-1.098 -3.492,-1.629 -0.256,0.295 -0.509,0.591 -0.764,0.885 0.599,1.919 0.76,4.152 1.872,5.702 4.513,6.288 3.776,13.187 3.007,20.192 -0.108,0.986 0.618,2.967 0.824,2.948 m 4.131,14.332 c 0.121,1.017 -0.035,2.191 0.429,3.017 0.724,1.291 2.042,3.404 2.795,3.281 1.614,-0.265 3.139,-1.616 4.467,-2.783 0.566,-0.501 0.629,-1.645 0.788,-2.521 0.357,-1.957 0.625,-3.928 0.932,-5.893 -2.221,-0.337 -4.773,-1.492 -6.563,-0.767 -1.615,0.656 -2.396,3.369 -3.546,5.176 0.233,0.163 0.464,0.327 0.698,0.49 m 9,-85.487 c -2.91,-5.612 -8.391,-5.807 -13.686,-5.993 -1.115,-0.039 -2.28,1.256 -2.966,1.666 -0.085,3.619 4.901,7.739 8.588,8.173 1.736,0.206 3.457,0.75 5.182,0.741 1.12,-0.006 2.706,-0.424 3.223,-1.218 0.489,-0.752 0.164,-2.396 -0.341,-3.369 m -23.823,40.449 c -1.613,-1.464 -2.644,-2.397 -3.672,-3.328 -0.914,1.091 -2.27,2.078 -2.563,3.317 -0.153,0.655 1.502,2.413 2.409,2.466 1.006,0.058 2.091,-1.264 3.826,-2.455 m 5.739,-13.659 c 2.812,-0.007 5.635,-0.265 8.428,-0.619 3.5,-0.44 4.121,-1.924 2.282,-4.906 -1.281,-2.073 -2.294,-4.345 -3.802,-6.228 -1.111,-1.388 -2.83,-2.289 -4.38,-3.483 -1.438,0.797 -3.143,1.248 -3.2,1.857 -0.373,3.882 -3.406,7.502 -1.33,11.588 0.39,0.768 1.324,1.795 2.002,1.791 m -5.208,28.796 c -1.014,1.315 -1.403,3.148 -2.327,5.61 -0.109,-0.02 -0.222,-0.036 -0.318,-0.07 -0.076,-0.028 -0.089,-0.229 0.165,0.493 0.06,-0.152 0.096,-0.277 0.153,-0.423 2.609,0.491 8.813,-2.713 8.734,-4.895 -0.048,-1.279 -1.413,-2.511 -2.181,-3.765 -1.441,0.995 -3.212,1.73 -4.226,3.05 m -22.824,-81.191 c 0.804,0.368 2.803,0.007 3.011,-0.515 1.939,-4.847 6.615,-5.531 10.561,-7.344 0.792,-0.361 1.518,-0.867 1.831,-1.05 -0.632,-2.771 -1.005,-4.898 -1.64,-6.946 -0.27,-0.874 -0.925,-1.891 -1.693,-2.295 -2.117,-1.113 -4.326,-2.186 -6.627,-2.746 -0.866,-0.212 -2.783,0.833 -3.01,1.644 -0.589,2.119 -0.264,4.488 -0.794,6.636 -0.319,1.294 -1.389,2.547 -2.419,3.492 -2.425,2.229 -2.132,7.79 0.78,9.124 m 6.686,11.803 c 1.533,-0.718 2.817,-1.967 4.969,-3.63 -1.891,-1.105 -3.156,-2.333 -3.709,-2.071 -1.386,0.658 -2.61,1.88 -3.494,3.155 -0.174,0.248 1.922,2.694 2.234,2.546 m -9.324,12.647 c -0.329,0.56 -1.421,1.566 -1.421,2.574 -0.003,3.268 3.849,7.027 6.768,6.501 1.037,-0.189 2.486,-1.797 2.569,-2.846 0.243,-3.155 -3.543,-6.325 -7.916,-6.229 m 38.199,-95.098 c 1.116,-1.226 1.831,-2.013 2.545,-2.798 -1.432,-1.078 -2.743,-2.598 -4.352,-3.049 -0.796,-0.219 -2.14,1.533 -3.236,2.392 1.529,1.049 3.061,2.096 5.043,3.455 m 19.679,50.972 c 2.013,-1.559 2.369,-2.848 0.96,-4.77 -2.121,-2.89 -4.639,-5.327 -8.523,-5.077 -3.52,0.228 -4.148,-1.618 -3.973,-4.516 0.305,-4.907 -0.712,-5.86 -5.535,-4.3 -3.847,1.246 -6.802,1.137 -9.533,-2.287 -0.882,-1.102 -3.093,-1.147 -4.694,-1.676 -0.398,1.471 -0.737,2.957 -1.206,4.403 -0.393,1.203 -0.628,2.71 -1.48,3.46 -2.026,1.788 -2.088,3.703 -1.104,5.888 1.08,2.401 2.004,4.935 3.492,7.067 0.675,0.968 2.541,1.102 3.172,1.345 3.43,-0.738 4.58,0.238 5.739,2.737 1.69,3.643 4.306,6.881 6.742,10.131 0.39,0.522 2.24,0.65 2.84,0.198 2.667,-2.012 5.236,-4.188 7.632,-6.521 1.953,-1.902 3.352,-4.441 5.471,-6.082 m 4.408,151.335 c 2.456,1.418 4.405,3.695 6.799,5.247 1.048,0.677 2.65,0.501 4,0.711 0.248,-1.708 1.298,-4.411 0.614,-4.958 -4.296,-3.453 -3.398,-7.083 -1.548,-11.33 1.767,-4.058 -2.204,-10.91 -6.606,-11.777 -2.619,-0.516 -4.64,0.055 -5.39,3.33 -0.808,3.522 -2.296,6.89 -3.487,10.325 0.078,4.301 2.31,6.541 5.618,8.452 m 18.827,-42.346 c -0.166,-3.758 -4.73,-8.737 -7.729,-8.365 -3.108,0.384 -3.658,2.736 -3.662,4.851 0.262,5.146 3.119,7.74 7.718,7.72 2.948,-0.013 3.783,-1.733 3.673,-4.206 m 2.766,-81.15 c -1.424,-1.249 -2.85,-2.498 -4.274,-3.748 -0.627,0.739 -1.254,1.476 -2.508,2.949 1.621,1.306 2.687,2.653 4.028,3.037 0.652,0.184 1.819,-1.435 2.754,-2.238 m 9.963,94.145 c 0.422,0.227 1.634,-1.01 3.485,-2.244 -2.392,-1.216 -3.79,-2.123 -5.321,-2.579 -0.415,-0.123 -1.236,1.116 -1.869,1.727 1.213,1.074 2.315,2.35 3.705,3.096 m 10.471,-31.949 c 1.672,0.876 3.209,2.006 4.816,3.011 0.793,0.495 1.616,1.301 2.424,1.3 0.602,-0.002 1.679,-1.069 1.686,-1.671 0.009,-0.812 -0.8,-1.637 -1.271,-2.449 -0.631,-1.095 -1.611,-2.114 -1.854,-3.288 -0.708,-3.411 -5.603,-8.104 -9.347,-8.828 -1.71,1.392 -4.589,2.571 -4.889,4.22 -0.669,3.669 3.056,5.092 5.506,6.941 0.741,0.56 2.057,0.305 2.929,0.764 m 3.566,58.132 c 2.8,0.211 4.934,-0.319 5.216,-3.36 0.313,-3.386 -4.684,-8.323 -8.337,-8.049 -3.215,0.241 -2.559,3.112 -2.683,5.065 -0.28,4.408 1.61,6.243 5.804,6.344 m 8.889,-39.694 c 0.548,1.101 2.507,1.497 3.13,1.825 2.155,-0.32 3.742,-0.084 4.328,-0.74 1.404,-1.576 2.336,-3.572 3.459,-5.399 -1.503,-0.865 -3.023,-2.456 -4.507,-2.423 -2.107,0.05 -4.497,0.898 -6.152,2.189 -0.837,0.654 -0.877,3.307 -0.258,4.548 m 15.275,-21.122 c 0.309,0.989 1.591,1.634 2.22,2.574 1.319,1.964 2.744,4.419 5.348,2.868 1.735,-1.032 2.664,-3.42 3.954,-5.2 -0.305,-0.209 -0.608,-0.419 -0.913,-0.627 0.283,-3.055 -0.823,-5.126 -3.81,-6.314 -1.604,-0.64 -2.959,-1.92 -4.404,-2.942 -2.088,-1.475 -4.123,-1.101 -4.18,1.408 -0.062,2.738 0.946,5.547 1.785,8.233 m 8.929,60.088 c 2.488,1.314 4.962,2.654 7.478,3.913 2.767,1.383 5.156,-1.095 5.209,-6.103 -0.324,-0.484 -0.823,-1.681 -1.698,-2.445 -2.099,-1.828 -4.443,-3.374 -6.557,-5.185 -1.785,-1.53 -3.155,-1.523 -4.321,0.604 -0.679,1.237 -1.407,2.454 -1.986,3.735 -1.071,2.373 -0.463,4.244 1.875,5.481 m 16.302,-16.033 c 0.188,1.42 1.396,2.703 2.305,4.323 3.248,-2.018 6.245,-3.085 8.024,-5.184 2.291,-2.703 -0.768,-5.023 -2.258,-6.952 -0.937,-1.214 -3.45,-2.266 -4.75,-1.841 -1.224,0.399 -2.018,2.751 -2.571,4.39 -0.563,1.668 -0.977,3.561 -0.75,5.264 m 31.606,-96.688 c -2.13,-1.752 -3.349,-3.54 -4.584,-3.551 -1.261,-0.013 -2.537,1.721 -3.805,2.691 1.137,1.363 2.046,3.32 3.491,3.871 0.877,0.334 2.581,-1.508 4.898,-3.011 m -9.474,66.011 c 2.316,-0.341 4.629,-1.227 6.682,-2.378 0.39,-0.217 -0.247,-2.601 -0.692,-3.887 -0.409,-1.185 -1.013,-2.419 -1.873,-3.296 -0.797,-0.814 -2.149,-1.759 -3.064,-1.589 -0.895,0.163 -1.884,1.55 -2.222,2.596 -0.499,1.549 -0.46,3.273 -0.747,5.772 0.404,0.618 1.332,2.869 1.916,2.782 m 27.711,-24.406 c -0.743,-3.618 -0.491,-7.008 -2.045,-8.957 -2.866,-3.59 -6.532,-6.725 -10.376,-9.275 -2.185,-1.448 -4.17,1.013 -3.613,3.903 0.762,3.964 1.639,7.943 1.901,11.954 0.167,2.528 -0.448,5.197 -1.177,7.666 -0.688,2.329 -0.279,4.117 2.162,3.221 4.158,-1.526 8.082,-3.758 11.939,-5.978 0.867,-0.5 1.054,-2.18 1.209,-2.534 m 40.308,56.752 c 2.458,2.422 5.115,4.67 7.874,6.741 0.831,0.622 2.454,0.795 3.43,0.427 0.751,-0.286 1.061,-1.741 1.568,-2.677 -0.432,-0.207 -0.864,-0.413 -1.294,-0.62 0.701,-1.663 1.708,-3.275 1.997,-5.009 0.19,-1.141 -0.265,-2.938 -1.099,-3.607 -2.735,-2.198 -5.882,-3.875 -8.673,-6.01 -3.179,-2.431 -5.314,-1.66 -6.265,2.312 -0.806,3.369 0.156,6.169 2.462,8.443 m 20.853,-17.29 c -1.337,-1.444 -1.903,-2.601 -2.634,-2.715 -1.097,-0.172 -2.688,0.012 -3.387,0.719 -1.397,1.414 -2.574,3.19 -3.303,5.031 -0.209,0.526 2.043,2.653 2.141,2.585 2.358,-1.653 4.575,-3.507 7.183,-5.62 m 15.704,-27.763 c 0,-0.434 0.048,-0.587 -0.008,-0.68 -1.827,-3.112 -5.314,-4.693 -7.498,-3.257 -0.581,0.382 -1.174,1.476 -1.04,2.081 0.418,1.874 5.549,2.955 8.546,1.856 m 4.697,-27.096 c 1.014,-0.088 2.287,-1.065 3.572,-2.48 3.413,-3.757 6.925,-10.717 5.984,-13.225 -0.218,-0.585 -0.605,-1.127 -1.004,-1.618 -2.561,-3.159 -12.48,-7.695 -16.814,-7.139 -1.774,-0.567 -3.523,-1.232 -5.328,-1.661 -1.019,-0.243 -2.131,-0.098 -3.201,-0.126 0.005,1.184 -0.324,2.495 0.069,3.531 1.418,3.745 3.086,7.395 4.634,11.094 0.141,0.335 0.244,0.804 0.12,1.116 -0.414,1.039 -0.591,1.988 -0.523,2.882 0.1,1.289 0.73,2.462 2.051,3.608 3.06,2.653 6.378,4.377 10.44,4.018 m 5.128,49.951 c 1.312,2.689 4.146,3.727 6.474,2.349 1.687,-0.998 3.069,-3.644 3.298,-5.698 0.297,-2.693 -0.634,-5.531 -1.116,-8.292 -0.482,-2.75 -2.041,-3.752 -4.697,-2.597 -5.469,2.378 -5.837,2.864 -6.228,7.44 0.736,2.276 1.231,4.668 2.269,6.798 m 13.31,-15.748 c 3.684,-1.292 7.8,-5.577 10.682,0.856 3.29,-1.277 5.676,-0.405 7.004,2.954 0.656,1.654 1.195,3.366 1.937,4.972 0.114,0.247 0.221,0.497 0.346,0.738 0.133,0.258 0.27,0.516 0.413,0.767 0.994,1.759 2.245,3.175 4.959,1.847 0.678,-0.331 1.973,0.799 3.031,0.985 0.784,0.134 1.608,0.045 2.428,-0.013 0.212,-0.014 0.424,-0.029 0.634,-0.036 -0.296,-1.106 -0.585,-2.216 -0.897,-3.32 -0.025,-0.094 -0.196,-0.204 -0.307,-0.211 -2.921,-0.216 -3.968,-1.372 -4.284,-2.881 -0.368,-1.733 0.237,-3.935 0.125,-5.731 -0.049,-0.778 1.139,-1.988 2.034,-2.401 1.952,-0.899 3.11,-2.058 2.008,-4.141 -1.185,-2.246 -3.184,-2.363 -5.279,-1.281 -0.668,0.345 -1.193,0.96 -1.8,1.435 -1.95,1.52 -3.48,1.18 -3.855,-1.314 -0.629,-4.187 -3.4,-6.534 -6.615,-8.711 -0.903,-0.612 -1.42,-1.793 -2.151,-2.762 -7.645,0.083 -11.678,6.908 -10.413,18.248 m 67.236,9.425 c -1.737,-3.066 -3.034,-5.355 -4.331,-7.645 -2.363,4.243 -1.144,6.263 4.331,7.645 m -74.181,-81.33 c -1.738,-3.064 -3.035,-5.354 -4.331,-7.645 -2.364,4.242 -1.145,6.264 4.331,7.645 m 17.629,9.155 c -3.057,-3.973 -7.588,-5.084 -11.076,-2.904 -1.724,1.08 -1.88,2.533 -1.511,3.945 0.198,0.751 0.537,1.49 0.881,2.152 0.394,0.755 2.817,1.101 3.97,0.683 0.195,-0.071 0.382,-0.165 0.573,-0.241 2.443,-0.972 4.734,-2.378 7.163,-3.635 m 40.226,48.414 c -1.333,-0.687 -2.366,-2.089 -3.333,-3.331 -2.085,-2.682 -3.918,-5.575 -6.122,-8.15 -0.653,-0.766 -2.201,-0.769 -3.85,-1.277 0,6.7 -0.092,12.815 0.089,18.919 0.03,1.021 1.028,2.422 1.964,2.925 2.441,1.309 11.331,-2.563 12.58,-5.126 0.907,-1.865 0.656,-2.939 -1.328,-3.96 m 2.339,-145.966 c 1.425,-1.357 2.796,-2.773 5.145,-5.113 -2.197,-0.859 -3.391,-1.764 -4.496,-1.666 -2.462,0.217 -4.865,1.021 -7.319,1.43 -2.687,0.443 -3.426,1.976 -1.937,4.324 2.844,4.484 4.729,4.719 8.607,1.025 m -4.374,26.295 c -1.786,-1.129 -4.134,-1.408 -6.293,-1.859 -0.29,-0.063 -1.12,0.853 -1.136,1.334 -0.103,3.215 -0.054,6.435 -0.054,10.023 3.2,-0.656 6.431,-1.662 7.778,-5.142 0.5,-1.293 0.46,-3.881 -0.295,-4.356 m 27.3,-68.965 c 1.024,0.631 2.694,0.887 3.826,0.508 1.646,-0.551 3.058,-1.805 4.57,-2.762 v -3.855 c -2.016,0.305 -4.089,0.42 -6.032,0.979 -1.21,0.347 -2.58,1.144 -3.206,2.158 -0.389,0.63 0.153,2.55 0.842,2.972 m 15.058,-35.386 c 1.026,0.629 2.697,0.884 3.827,0.507 1.286,-0.431 2.428,-1.291 3.586,-2.101 0.617,-0.432 0.985,-1.135 0.985,-1.889 0,-1.398 -1.234,-2.467 -2.621,-2.289 -1.157,0.149 -2.304,0.322 -3.411,0.641 -1.211,0.347 -2.58,1.144 -3.205,2.156 -0.391,0.633 0.152,2.553 0.839,2.975 m 14.2,-39.879 c 0.072,-0.102 -1.595,-2.1 -2.462,-2.108 -3.184,-0.029 -3.836,2.405 -4.161,5.813 0.557,0.39 2.025,1.629 2.166,1.494 1.64,-1.584 3.126,-3.344 4.457,-5.199 m -110.715,59.119 c 0.218,0.914 1.359,2.057 2.276,2.275 3.455,0.828 6.977,1.637 10.503,1.803 1.714,0.082 3.499,-1.264 5.243,-1.979 0.872,-0.359 1.884,-1.265 2.567,-1.054 5.174,1.586 6.675,-2.344 9.058,-5.59 -3.508,-2.174 -6.369,-4.397 -9.595,-5.766 -1.752,-0.742 -4.229,-0.427 -6.185,0.112 -3.494,0.959 -6.752,2.402 -9.951,-0.817 -0.672,-0.677 -2.575,-0.861 -3.456,-0.402 -0.888,0.465 -1.719,2.035 -1.675,3.084 0.117,2.797 0.558,5.609 1.215,8.334 m -480.413,268.191 c 2.245,-0.384 2.672,-1.771 1.36,-3.623 -0.367,-0.519 -0.81,-1.004 -1.292,-1.423 -3.881,-3.357 -4.773,-7.134 -2.419,-11.921 0.589,-1.198 -0.091,-3.84 -1.13,-4.833 -1.707,-1.631 -4.058,-2 -6.116,0.25 -0.829,0.908 -2.196,1.324 -3.319,1.964 -0.406,-1.142 -1.156,-2.285 -1.158,-3.428 -0.003,-4.64 -4.059,-5.061 -6.819,-6.81 -1.366,-0.868 -2.801,-1.676 -4.302,-2.272 -1.471,-0.585 -3.705,-1.684 -4.453,-1.094 -1.211,0.952 -2.215,3.202 -2.005,4.724 0.555,4.042 2.049,7.949 2.686,11.986 0.342,2.165 0.448,5.057 -0.705,6.603 -1.721,2.308 -4.56,1.679 -6.874,-0.095 -0.235,-0.181 -0.73,-0.023 -1.076,-0.023 -2.77,6.276 1.434,10.66 4.244,15.26 0.651,1.069 2.926,1.185 4.478,1.655 2.153,0.65 4.329,1.219 6.494,1.823 0.473,-2.14 0.765,-4.34 1.452,-6.409 1.524,-4.574 4.699,-6.11 9.31,-3.162 4.112,2.629 7.737,1.499 11.644,0.828 m -28.982,-63.336 c -2.932,0.11 -2.763,2.032 -2.543,4.433 -0.716,3.658 1.589,4.507 4.944,4.338 2.955,-0.149 5.492,-2.397 5.371,-4.857 -0.13,-2.588 -3.205,-4.085 -7.772,-3.914 m -18.539,78.733 c -0.685,-0.004 -1.374,0.298 -2.052,0.459 0.613,-2.873 1.287,-5.249 1.483,-7.665 0.037,-0.45 -2.392,-1.771 -2.78,-1.481 -5.144,3.844 -10.173,7.848 -15.122,11.941 -1.916,1.587 -1.681,3.681 0.39,4.753 2.93,1.518 6.196,3.513 9.23,3.375 2.721,-0.122 5.382,-2.763 7.947,-4.477 1.115,-0.747 2.051,-1.863 2.827,-2.979 0.758,-1.094 1.209,-2.402 1.796,-3.615 -1.239,-0.114 -2.479,-0.304 -3.719,-0.311 m 2.761,-45.93 c -1.817,-1.049 -3.969,-1.557 -6.045,-2.076 -0.381,-0.096 -0.951,0.777 -1.501,1.086 -1.493,0.838 -3.023,1.616 -4.538,2.417 -0.345,-1.494 -0.482,-3.081 -1.088,-4.464 -0.829,-1.888 -2.012,-3.621 -3.362,-5.979 6.209,2.945 7.472,2.443 10.059,-3.471 2.429,-5.552 1.154,-8.624 -4.846,-10.089 -1.382,-0.337 -3.832,1.062 -4.843,2.385 -2.218,2.904 -3.987,6.192 -5.585,9.496 -0.445,0.92 -0.051,3.178 0.653,3.569 4.352,2.417 4.394,5.637 2.592,9.655 -0.984,2.194 -1.34,4.664 -2.311,6.864 -1,2.268 -0.707,3.664 1.415,5.182 2.634,1.885 4.833,4.372 7.366,6.415 0.649,0.523 2.384,0.787 2.695,0.411 0.596,-0.726 0.559,-1.992 0.734,-3.041 0.29,-1.763 0.009,-3.893 0.914,-5.23 2.259,-3.343 5.177,-6.235 7.539,-9.517 0.623,-0.864 0.666,-3.316 0.152,-3.613 m -38.434,10.634 c -0.965,0.32 -2.001,1.404 -2.295,2.383 -0.154,0.517 1.198,1.484 2.318,2.757 1.025,-1.495 2.05,-2.392 2.166,-3.393 0.061,-0.538 -1.659,-1.921 -2.189,-1.747 M 85.327,-4.292 C 81.293,3.65 74.688,10.06 67.332,14.149 c -3.678,2.07 -7.53,3.645 -11.421,4.798 -3.895,1.124 -7.83,1.845 -11.723,2.306 -3.776,0.382 -7.633,0.628 -11.561,0.535 V 7.9 c 3.132,-0.143 6.344,-0.543 9.536,-1.1 3.122,-0.592 6.136,-1.366 8.999,-2.403 2.845,-1.062 5.508,-2.393 7.908,-3.973 4.812,-3.153 8.465,-7.385 10.535,-12.278 0.146,-0.341 0.267,-0.691 0.398,-1.04 0.658,0.127 1.435,0.035 2.42,-0.446 0.679,-0.332 1.973,0.798 3.031,0.981 0.988,0.174 2.039,-0.016 3.063,-0.045 -0.296,-1.108 -0.585,-2.217 -0.897,-3.321 -0.025,-0.095 -0.196,-0.204 -0.307,-0.212 -6.278,-0.463 -3.952,-5.255 -4.16,-8.61 -0.048,-0.78 1.14,-1.99 2.035,-2.403 1.951,-0.899 3.11,-2.057 2.007,-4.14 -1.185,-2.247 -3.184,-2.363 -5.279,-1.281 -0.446,0.231 -0.834,0.585 -1.222,0.937 -1.079,-4.329 -2.933,-8.595 -5.331,-12.611 -1.507,-2.603 -3.314,-4.997 -5.248,-7.45 -1.996,-2.489 -4.239,-5.059 -6.505,-7.571 -0.847,-0.938 -1.712,-1.865 -2.574,-2.795 -0.81,-0.554 -1.652,-1.146 -2.54,-1.805 -16.155,-11.971 -29.203,-15.618 -39.881,-17.632 -23.773,12.006 -58.673,26.011 -96.276,34.516 0.254,-0.287 0.526,-0.564 0.741,-0.876 0.397,-0.577 -1.648,-3.253 -3.013,-4.475 -0.812,-0.729 -2.48,-0.504 -3.764,-0.708 -0.145,1.367 -0.449,2.743 -0.396,4.104 0.038,0.985 0.178,1.974 0.376,3.269 -6.186,1.29 -12.431,2.423 -18.701,3.365 -4.728,0.399 -9.182,0.033 -13.321,-2.888 -0.929,-0.656 -3.453,-0.569 -4.038,0.153 -0.972,1.198 -1.586,3.321 -1.266,4.821 0.01,0.042 0.01,0.079 0.019,0.121 -5.645,0.479 -11.276,0.775 -16.874,0.87 -0.737,-1.191 -1.871,-2.226 -2.67,-3.423 -1.439,-2.155 -2.653,-4.463 -4.145,-6.576 -0.722,-1.025 -1.855,-1.76 -3.283,-3.065 -1.639,1.471 -3.781,2.483 -3.905,3.702 -0.242,2.346 -0.121,5.492 1.261,7.077 0.726,0.83 1.553,1.58 2.418,2.294 -79.725,-0.385 -133.084,12.379 -162.2,19.099 -5.906,1.363 -13.138,2.634 -21.107,3.792 3.357,-1.052 6.172,-2.826 7.436,-6.352 0.906,-2.526 2.253,-3.311 4.915,-2.793 1.076,0.208 3.147,-0.546 3.464,-1.367 1.047,-2.693 -0.887,-2.896 -3.455,-1.905 -1.267,-0.917 -2.878,-1.589 -3.745,-2.795 -2.753,-3.83 -4.849,-3.91 -7.889,-0.149 -1.008,1.246 -2.468,2.116 -3.563,3.304 -0.69,0.751 -1.441,1.735 -1.541,2.681 -0.238,2.27 -0.082,4.579 -0.136,6.872 -0.039,1.747 0.495,2.685 1.593,2.923 -31.696,4.404 -73.701,7.051 -92.713,6.61 -24.488,-0.57 -67.768,21.64 -87.131,25.057 -5.716,1.009 -13.427,-0.473 -21.684,-3.237 -19.706,-6.599 -42.542,-20.565 -48.93,-25.808 -5.553,-4.555 -8.115,-22.065 -9.823,-24.202 -1.709,-2.135 -57.232,-32.887 -57.232,-34.596 0,-1.708 -4.7,-11.105 17.51,-24.771 19.58,-12.05 30.856,-10.821 35.303,-10.362 0.596,0.063 1.075,0.111 1.428,0.111 1.592,0 6.209,2.056 10.505,3.788 3.769,1.519 7.291,2.79 8.288,2.191 2.136,-1.28 8.969,-1.707 2.136,-6.833 l -6.833,-5.126 c 0,0 4.086,0.389 9.364,0.774 v 0.219 c 0.398,-0.059 0.804,-0.095 1.21,-0.133 1.616,0.111 3.314,0.222 5.027,0.319 0.635,0.037 1.274,0.071 1.909,0.102 4.151,0.209 8.6,3.84 12.474,6.544 4.1,2.861 7.553,4.682 9.309,0.292 2.439,-6.099 8.573,-13.475 13.751,-15.657 2.075,-0.877 4.002,-0.943 5.469,0.279 2.86,2.386 10.514,8.229 17.833,12.036 -0.386,1.708 -0.234,3.542 0.605,5.165 0.787,1.522 1.242,3.296 1.477,5.008 0.372,2.744 1.82,3.527 4.278,2.801 0.65,-0.193 1.253,-0.432 1.815,-0.714 0.14,0.386 0.28,0.769 0.398,1.163 1.324,4.266 1.563,8.89 1.251,13.477 -0.665,9.225 -3.333,18.315 -5.723,27.412 -1.213,4.555 -2.423,9.129 -3.328,13.786 -0.883,4.646 -1.514,9.425 -1.021,14.195 0.404,4.025 1.838,8.12 4.559,11.153 -2.072,2.588 -3.639,5.431 -3.312,6.922 0.25,1.146 1.293,2.475 2.338,3.02 2.354,1.225 4.946,1.98 7.418,2.981 4.053,1.641 5.04,0.948 4.569,-4.288 0.006,-0.062 -0.068,-1.134 0.282,-2.042 0.02,-0.05 0.08,-0.109 0.115,-0.163 0.973,0.275 1.952,0.52 2.931,0.732 -0.963,-0.238 -1.924,-0.511 -2.877,-0.811 0.383,-0.526 1.256,-1.105 1.426,-0.991 0.769,0.515 1.778,1.303 1.869,2.086 0.425,3.652 2.429,4.224 5.666,3.723 3.367,-0.523 4.226,-2.624 3.949,-5.425 -0.105,-1.061 -0.927,-2.434 -1.833,-2.971 -4.662,-2.764 -9.454,-5.312 -14.217,-7.905 -0.426,-0.231 -0.979,-0.352 -1.466,-0.331 -1.605,0.072 -4.316,2.383 -6.544,5.068 -2.512,-3.013 -3.744,-6.953 -4.023,-10.832 -0.339,-4.638 0.415,-9.303 1.425,-13.861 1.032,-4.566 2.37,-9.071 3.717,-13.581 2.657,-9.021 5.638,-18.063 6.634,-27.662 0.466,-4.779 0.392,-9.737 -0.939,-14.541 -0.208,-0.783 -0.471,-1.551 -0.757,-2.312 0.617,-0.802 1.063,-1.779 1.306,-2.971 0.282,-1.398 0.617,-2.782 0.956,-4.12 0.461,-0.165 0.885,-0.387 1.256,-0.684 6.407,-5.126 72.039,-32.888 76.737,-45.275 4.698,-12.386 55.239,-66.627 72.322,-79.725 l 7.14,0.145 c -3.835,4.332 -7.79,7.388 -11.731,8.396 l 8.258,0.547 c 19.183,-12.842 37.361,-68.938 39.04,-74.566 14.526,-48.704 3.604,-104.055 -1.338,-109.881 -4.941,-5.828 -21.997,-20.235 -14.248,-26.164 2.946,-2.254 10.024,-3.68 17.7,-2.319 5.493,0.973 11.292,3.362 16.114,7.942 4.747,4.506 6.892,12.338 7.871,20.525 -4.086,-1.346 -6.668,0.014 -10.28,4.656 -2.459,3.164 -3.619,5.895 -1.798,9.694 0.551,1.146 0.278,2.787 0.095,4.164 -0.281,2.158 0.095,3.752 2.367,4.613 2.319,0.881 3.5,-0.078 4.613,-2.051 1.222,-2.17 3.538,-3.859 1.718,-6.867 -0.482,-0.799 -0.448,-2.262 -0.029,-3.111 0.226,-0.457 2.056,-0.672 2.659,-0.26 0.632,0.432 1.054,1.185 1.443,1.953 0.135,7.055 -0.073,13.117 0.452,15.943 1.337,7.18 6.777,12.469 8.928,28.737 -0.394,-0.223 -0.703,-0.33 -0.939,-0.244 -2.022,0.744 -5.5,0.017 -5.242,3.617 0.068,0.957 2.254,2.713 2.96,2.492 1.1,-0.348 2.117,-0.977 3.291,-1.771 -3.841,19.761 -1.513,48.96 3.489,74.796 -0.569,0.352 -1.109,0.717 -1.57,1.045 -1.6,1.135 -2.894,2.926 -3.809,4.696 -0.421,0.81 0.028,2.673 0.746,3.3 0.706,0.614 2.82,0.788 3.324,0.241 1.12,-1.213 2.062,-1.328 3.021,-1.014 3.228,14.541 7.23,27.437 11.313,36.174 13.031,3.912 33.617,9.875 55.626,16.838 -0.291,0.322 -0.599,0.605 -0.942,0.771 -2.829,1.358 -2.696,3.292 -1.791,5.729 2.552,6.891 6.725,9.872 13.588,9.22 1.33,-0.126 3.062,-0.989 3.741,-2.062 1.538,-2.425 2.85,-5 4.138,-7.583 11.948,3.983 23.796,8.166 34.617,12.387 -0.547,1.023 -0.829,2.223 -0.829,3.607 0.039,2.816 3.152,6.109 5.944,6.092 0.798,-0.005 1.895,-0.416 2.291,-1.013 0.342,-0.516 0.186,-1.931 -0.274,-2.313 -1.624,-1.346 -1.797,-2.693 -1.44,-4.106 0.331,0.135 0.664,0.269 0.993,0.404 6.311,-19.143 19.083,-67.321 20.415,-72.784 4.907,-20.117 65.238,-45.736 86.354,-81.83 0.454,0.246 0.891,0.586 1.302,1.041 2.694,2.994 5.567,3.197 8.996,1.582 1.127,-0.533 2.509,-0.5 3.709,-0.92 1.07,-0.373 2.979,-1.218 2.916,-1.5 -0.346,-1.564 -0.961,-3.207 -1.974,-4.412 -0.343,-0.41 -2.209,0.172 -3.2,0.664 -1.247,0.617 -2.241,1.729 -3.467,2.41 -2.486,1.379 -4.642,1.184 -6.135,-1.599 -0.107,-0.199 -0.226,-0.393 -0.341,-0.588 0.056,-0.107 0.121,-0.213 0.173,-0.318 19.013,-38.024 -17.237,-58.811 -17.237,-64.387 0,-5.576 27.884,-7.098 38.023,-2.535 8.386,3.773 7.755,22.451 6.712,31.955 -0.262,-0.643 -1.144,-0.6 -3.447,-0.475 -0.253,-0.053 -1.266,-0.361 -2.299,-0.461 -1.333,-0.127 -2.691,-0.014 -4.023,-0.142 -1.445,-0.141 -2.934,-0.262 -4.299,-0.705 -3.297,-1.071 -4.584,-0.147 -4.166,3.236 0.195,1.576 0.401,3.156 0.717,4.713 0.617,3.062 3.281,3.719 5.98,2.279 2.253,-1.199 5.012,-1.74 7.596,-1.935 1.444,-0.11 2.579,-0.46 3.243,-1.332 -0.331,5.101 2.304,26.669 5.021,43.914 -2.659,-0.057 -5.793,3.689 -5.059,6.279 0.544,1.916 1.995,4.058 3.663,5.023 0.715,0.412 1.884,-0.677 2.878,-2.408 0.726,4.102 1.419,7.59 2.018,10.037 -25.16,19.205 -50.862,34.981 -54.167,48.533 -4.86,19.924 -26.83,88.824 -51.747,94.557 -1.75,-1.084 -3.119,-1.257 -4.452,-0.497 -0.723,0.413 -1.439,1.077 -2.205,2.043 -2.325,2.929 -5.748,4.959 -8.412,7.657 -1.205,1.22 -2.438,3.151 -2.339,4.672 0.069,1.043 2.412,1.937 3.741,2.897 4.04,-0.347 6.257,-2.275 7.524,-5.385 1.051,-2.578 2.657,-3.395 5.522,-3.666 2.755,-0.258 5.562,-1.813 7.913,-3.428 0.354,-0.244 0.348,-1.006 0.246,-1.914 20.411,-4.082 38.901,-50.875 47.725,-78.988 0.144,5.105 3.32,7.924 7.755,11.181 4.549,3.34 6.646,4.299 10.776,0.102 1.857,-1.885 5.574,-1.9 8.41,-2.871 3.701,-1.268 6.11,-7.315 3.884,-10.492 -0.775,-1.106 -3.255,-2.088 -4.382,-1.651 -2.506,0.973 -4.381,0.789 -6.345,-0.875 -0.454,-0.385 -1.17,-0.568 -1.787,-0.635 -4.56,-0.496 -9.123,-0.937 -13.687,-1.394 -0.004,0.049 -0.008,0.098 -0.014,0.148 -0.854,-0.093 -1.709,-0.214 -2.565,-0.273 1.025,-3.525 1.839,-6.561 2.411,-8.908 1.237,-5.074 5.617,-10.459 11.93,-16.221 0.235,1.662 1.769,2.799 4.035,3.711 0.772,-2.678 2.901,-5.088 -0.329,-6.957 23.877,-20.16 67.73,-44.832 83.586,-76.541 21.354,-42.711 -19.363,-66.059 -19.363,-72.322 0,-4.996 15.786,-6.411 27.961,-4.184 3.096,0.566 5.963,1.365 8.273,2.402 11.389,5.127 10.962,33.885 9.822,40.149 -1.137,6.265 -6.193,66.416 -2.776,76.666 3.417,10.25 -18.366,7.89 -35.449,45.476 -17.085,37.586 -1.343,63.322 2.989,84.365 2.781,13.506 7.493,60.361 -4.167,80.679 0.466,0.686 0.939,1.362 1.419,2.031 4.245,4.158 8.413,8.386 12.46,12.729 4.978,5.36 9.822,10.827 14.489,16.556 2.341,2.876 4.627,5.768 6.912,8.933 2.287,3.24 4.496,6.714 6.319,10.381 3.7,7.302 6.358,15.392 7.001,23.97 0.681,8.525 -0.761,17.58 -4.858,25.494 M 1.328,-20.857 c -1.384,3.081 -2.369,6.364 -2.87,9.801 1.291,-0.699 2.805,-1.147 4.475,-1.243 0.363,0.93 0.46,2.315 1.118,2.674 3.596,1.958 2.005,4.795 1.977,7.701 C 5.991,1.833 7.12,5.606 7.782,9.365 8.016,10.692 8.354,12 8.643,13.317 7.526,12.868 6.258,12.587 5.265,12.003 c 1.071,1.102 2.225,2.113 3.453,2.981 3.721,2.695 7.857,4.289 11.896,5.299 2.122,0.51 4.225,0.865 6.311,1.109 -0.775,-0.255 -1.541,-0.529 -2.282,-0.86 -4.58,-2.041 -4.747,-5.177 -0.886,-8.485 1.551,-1.33 3.048,-2.724 4.53,-4.133 C 26.617,7.845 24.982,7.692 23.406,7.418 17.599,6.427 12.979,3.846 10.822,-0.572 8.541,-4.965 8.729,-11.299 10.838,-16.89 c 1.033,-2.811 2.548,-5.471 4.403,-7.652 1.851,-2.156 4.119,-3.79 6.165,-4.201 l 0.147,-0.029 c 2.401,-0.482 3.958,-2.82 3.475,-5.222 -0.465,-2.311 -2.661,-3.838 -4.965,-3.52 -5.041,0.707 -8.849,3.475 -11.825,6.422 -2.962,3.032 -5.222,6.501 -6.91,10.235 m -382.233,-129.686 c 1.321,-1.323 2.256,-2.258 3.19,-3.194 -0.853,-0.722 -2.034,-2.216 -2.494,-2.018 -1.24,0.53 -2.168,1.78 -3.224,2.745 0.677,0.66 1.354,1.321 2.528,2.467 m 263.767,-42.934 c -0.563,0.041 -1.076,0.759 -1.613,1.168 0.363,0.457 0.906,1.368 1.063,1.307 4.292,-1.689 6.553,2.595 10.713,3.885 0.171,-2.396 0.773,-5.369 0.327,-5.536 -1.849,-0.688 -4.013,-0.548 -6.063,-0.678 -1.475,-0.094 -2.963,-0.259 -4.427,-0.146 m -214.407,-113.632 c -0.66,2.582 -1.306,5.271 -1.219,7.892 0.036,1.104 1.928,2.151 2.975,3.223 l 2.421,-2.934 c -0.434,-0.297 -0.87,-0.592 -1.303,-0.886 0.775,-1.465 1.686,-2.879 2.278,-4.412 0.447,-1.163 1.065,-2.858 0.561,-3.639 -0.723,-1.119 -2.343,-1.981 -3.702,-2.199 -0.524,-0.084 -1.718,1.81 -2.011,2.955 m -5.082,-31.303 c -2.171,0.057 -3.682,1.191 -3.451,3.656 0.262,2.809 2.069,3.592 5.345,3.992 1.113,-1.222 3.129,-2.423 3.158,-3.671 0.071,-2.96 -2.378,-4.049 -5.052,-3.977 m -9.801,19.514 c -1.103,0.662 -2.107,2.336 -2.158,3.595 -0.033,0.776 1.7,1.881 2.841,2.393 2.074,0.93 4.326,1.445 6.447,2.279 4.036,1.584 7.751,-0.845 7.681,-5.099 -0.051,-3.041 -4.942,-6.159 -8.699,-5.338 -2.108,0.461 -4.288,1.082 -6.112,2.17 m 2.084,54.351 c 0.264,2.807 2.068,3.592 5.345,3.99 1.115,-1.222 3.131,-2.423 3.161,-3.671 0.068,-2.959 -2.378,-4.049 -5.055,-3.979 -2.169,0.059 -3.68,1.193 -3.451,3.66 m 19.682,-15.676 c -0.949,-3.988 -7.531,-8.939 -12.4,-8.996 -1.034,0.344 -2.899,0.817 -4.611,1.612 -0.626,0.291 -1.326,1.402 -1.25,2.052 0.336,2.877 0.866,5.743 1.498,8.573 0.174,0.785 0.786,1.652 1.455,2.115 2.271,1.574 12.673,0.225 14.388,-1.961 0.681,-0.867 1.165,-2.375 0.92,-3.395 m -26.148,25.133 c -0.954,-1.818 -2.254,-3.455 -3.429,-5.158 -0.816,1.018 -2.527,2.451 -2.283,2.975 0.789,1.693 2.296,3.054 4.066,5.193 0.886,-1.561 1.862,-2.598 1.646,-3.01 m -12.623,10.069 c -1.471,0.55 -2.719,1.697 -4.055,2.611 0.763,0.848 1.526,1.695 2.759,3.062 1.448,-1.451 2.509,-2.511 3.571,-3.574 -0.776,-0.746 -1.837,-2.261 -2.275,-2.099 m 33.615,-135.09 c 1.256,6.74 7.056,9.799 5.127,26.197 -2.516,21.369 0.143,49.158 5.085,71.686 -5.497,14.498 -14.956,36.572 -25.518,49.671 l -16.868,-0.345 c -5.809,4.455 -15.491,13.672 -25.918,24.377 22.288,-42.33 42.447,-94.016 38.727,-122.713 -0.729,-5.621 10.252,-32.358 -4.708,-72.819 -1.982,-5.359 -13.591,-9.92 -13.534,-14.795 0.438,-0.158 0.878,-0.314 1.314,-0.472 0.738,-0.268 1.103,-1.838 1.428,-2.871 0.059,-0.186 0.081,-0.381 0.085,-0.582 6.9,-4.635 20.574,-2.692 29.37,2.519 12.215,7.233 4.157,33.408 5.41,40.147"
             style="fill:#000000;fill-opacity:1;fill-rule:nonzero;stroke:none"
             id="path9289" />
        </g>
      </g>
    </g>
  </g>
</svg>
